<svg width="41" height="31" viewBox="0 0 41 31" fill="none" xmlns="http://www.w3.org/2000/svg">
<path d="M19.7058 0.668429C20.2367 0.240413 20.9563 0 21.7066 0C22.4569 0 23.1765 0.240413 23.7074 0.668429L39.7514 13.6201C40.2817 14.0487 40.5795 14.6296 40.5795 15.2353C40.5795 15.841 40.2817 16.4219 39.7514 16.8504L23.7074 29.8021C23.1704 30.2056 22.4605 30.4254 21.7269 30.4151C20.9933 30.4049 20.2933 30.1655 19.7738 29.7473C19.2557 29.3279 18.9591 28.7628 18.9465 28.1706C18.9338 27.5784 19.206 27.0053 19.7058 26.5718L30.9178 17.5209L2.8313 17.5209C2.08039 17.5209 1.36024 17.2801 0.829266 16.8514C0.298294 16.4228 -3.8147e-06 15.8414 -3.8147e-06 15.2353C-3.8147e-06 14.6291 0.298294 14.0477 0.829266 13.6191C1.36024 13.1905 2.08039 12.9497 2.8313 12.9497L30.9178 12.9497L19.7058 3.89873C19.1756 3.47018 18.8778 2.88927 18.8778 2.28358C18.8778 1.6779 19.1756 1.09698 19.7058 0.668429Z" fill="black"/>
</svg>
