<svg width="124" height="112" viewBox="0 0 124 112" fill="none" xmlns="http://www.w3.org/2000/svg">
<path d="M121 9.5V109H17.5C16.1666 107.833 14 109 5.49997 94C1.43448 86.8256 -9.53674e-06 63.5 10.9999 53L8.99996 9.5L42.5 50C49.5 43.5 64.9 38.5 70.5 38.5C76.1 38.5 89.8333 42.5 95.9999 48.5L121 9.5Z" stroke="black" stroke-width="5"/>
<path d="M40 83.5C42.7707 83.5 44.6795 81.4118 45.7478 79.3819C46.877 77.2365 47.5 74.4457 47.5 71.5C47.5 68.5543 46.877 65.7635 45.7478 63.6181C44.6795 61.5882 42.7707 59.5 40 59.5C37.2293 59.5 35.3205 61.5882 34.2522 63.6181C33.123 65.7635 32.5 68.5543 32.5 71.5C32.5 74.4457 33.123 77.2365 34.2522 79.3819C35.3205 81.4118 37.2293 83.5 40 83.5Z" stroke="black" stroke-width="5"/>
<path d="M93 84.5C95.7707 84.5 97.6795 82.4118 98.7478 80.3819C99.877 78.2365 100.5 75.4457 100.5 72.5C100.5 69.5543 99.877 66.7635 98.7478 64.6181C97.6795 62.5882 95.7707 60.5 93 60.5C90.2293 60.5 88.3205 62.5882 87.2522 64.6181C86.123 66.7635 85.5 69.5543 85.5 72.5C85.5 75.4457 86.123 78.2365 87.2522 80.3819C88.3205 82.4118 90.2293 84.5 93 84.5Z" stroke="black" stroke-width="5"/>
<path d="M93 90.5L74 95.5L58.5 75.5L74 75L62 95.5L45 89" stroke="black" stroke-width="5"/>
</svg>
